<svg width="32" height="32" viewBox="0 0 32 32" fill="none" xmlns="http://www.w3.org/2000/svg">
  <rect width="32" height="32" rx="6" fill="url(#gradient)"/>
  <defs>
    <linearGradient id="gradient" x1="0%" y1="0%" x2="100%" y2="100%">
      <stop offset="0%" style="stop-color:#667eea;stop-opacity:1" />
      <stop offset="100%" style="stop-color:#764ba2;stop-opacity:1" />
    </linearGradient>
  </defs>
  
  <!-- Government building icon -->
  <rect x="6" y="18" width="20" height="10" fill="white" opacity="0.9"/>
  <rect x="8" y="16" width="2" height="2" fill="white"/>
  <rect x="11" y="16" width="2" height="2" fill="white"/>
  <rect x="14" y="16" width="2" height="2" fill="white"/>
  <rect x="17" y="16" width="2" height="2" fill="white"/>
  <rect x="20" y="16" width="2" height="2" fill="white"/>
  <rect x="23" y="16" width="2" height="2" fill="white"/>
  
  <!-- Pillars -->
  <rect x="8" y="18" width="1.5" height="10" fill="white" opacity="0.7"/>
  <rect x="11.5" y="18" width="1.5" height="10" fill="white" opacity="0.7"/>
  <rect x="15" y="18" width="1.5" height="10" fill="white" opacity="0.7"/>
  <rect x="18.5" y="18" width="1.5" height="10" fill="white" opacity="0.7"/>
  <rect x="22" y="18" width="1.5" height="10" fill="white" opacity="0.7"/>
  
  <!-- Top triangle -->
  <polygon points="16,6 8,16 24,16" fill="white" opacity="0.9"/>
  
  <!-- Chat bubble -->
  <circle cx="24" cy="8" r="4" fill="#FFD700"/>
  <circle cx="22.5" cy="7" r="0.8" fill="white"/>
  <circle cx="24" cy="7" r="0.8" fill="white"/>
  <circle cx="25.5" cy="7" r="0.8" fill="white"/>
</svg>